<?xml version="1.0" encoding="UTF-8"?>
<svg version="1.1" xmlns="http://www.w3.org/2000/svg" width="16" height="16">
<path d="M0 0 C5.28 0 10.56 0 16 0 C16 4.95 16 9.9 16 15 C10.72 15 5.44 15 0 15 C0 10.05 0 5.1 0 0 Z " fill="#A4DEF3" transform="translate(0,1)"/>
<path d="M0 0 C1.98 0 3.96 0 6 0 C6 0.99 6 1.98 6 3 C6.33 2.01 6.66 1.02 7 0 C8.32 0 9.64 0 11 0 C11.6875 3.3125 11.6875 3.3125 12 7 C10.5625 8.9375 10.5625 8.9375 9 10 C7 9 7 9 6 6 C5.67 6.99 5.34 7.98 5 9 C5 7.68 5 6.36 5 5 C3.35 4.67 1.7 4.34 0 4 C0 2.68 0 1.36 0 0 Z " fill="#57C5EC" transform="translate(4,4)"/>
<path d="M0 0 C5.28 0 10.56 0 16 0 C16 1.65 16 3.3 16 5 C15.67 4.34 15.34 3.68 15 3 C13.68 3 12.36 3 11 3 C11.33 3.99 11.66 4.98 12 6 C11.34 6 10.68 6 10 6 C10 5.01 10 4.02 10 3 C8.02 3.33 6.04 3.66 4 4 C3.67 4.99 3.34 5.98 3 7 C2.34 7 1.68 7 1 7 C0.67 4.69 0.34 2.38 0 0 Z " fill="#B7E5F6" transform="translate(0,1)"/>
<path d="M0 0 C0.33 0.99 0.66 1.98 1 3 C1.66 3 2.32 3 3 3 C2.625 5.4375 2.625 5.4375 2 8 C1.01 8.495 1.01 8.495 0 9 C-2 8 -2 8 -3 5 C-3.33 5.99 -3.66 6.98 -4 8 C-3.67 6.35 -3.34 4.7 -3 3 C-2.01 3 -1.02 3 0 3 C0 2.01 0 1.02 0 0 Z " fill="#70CDEF" transform="translate(13,5)"/>
</svg>
